<mxfile host="app.diagrams.net" modified="2021-07-15T16:45:20.228Z" agent="5.0 (Windows NT 10.0; Win64; x64) AppleWebKit/537.36 (KHTML, like Gecko) Chrome/91.0.4472.124 Safari/537.36 Edg/91.0.864.67" etag="4vEiCjhzYKKkgGwfFDjs" version="14.8.6" type="github">
  <diagram id="2HZs6c1AkfSWgdq9F9BH" name="Page-1">
    <mxGraphModel dx="1185" dy="635" grid="1" gridSize="10" guides="1" tooltips="1" connect="1" arrows="1" fold="1" page="1" pageScale="1" pageWidth="850" pageHeight="1100" math="0" shadow="0">
      <root>
        <mxCell id="0" />
        <mxCell id="1" parent="0" />
        <mxCell id="zgpLaoxaqzMqhfPIAVHX-3" value="" style="edgeStyle=orthogonalEdgeStyle;rounded=0;orthogonalLoop=1;jettySize=auto;html=1;" edge="1" parent="1" source="zgpLaoxaqzMqhfPIAVHX-1" target="zgpLaoxaqzMqhfPIAVHX-2">
          <mxGeometry relative="1" as="geometry" />
        </mxCell>
        <mxCell id="zgpLaoxaqzMqhfPIAVHX-1" value="start of the fight&lt;br&gt;intro" style="rounded=0;whiteSpace=wrap;html=1;" vertex="1" parent="1">
          <mxGeometry x="350" y="70" width="120" height="60" as="geometry" />
        </mxCell>
        <mxCell id="zgpLaoxaqzMqhfPIAVHX-4" style="edgeStyle=orthogonalEdgeStyle;rounded=0;orthogonalLoop=1;jettySize=auto;html=1;" edge="1" parent="1" source="zgpLaoxaqzMqhfPIAVHX-2">
          <mxGeometry relative="1" as="geometry">
            <mxPoint x="410" y="300" as="targetPoint" />
          </mxGeometry>
        </mxCell>
        <mxCell id="zgpLaoxaqzMqhfPIAVHX-19" style="edgeStyle=orthogonalEdgeStyle;rounded=0;orthogonalLoop=1;jettySize=auto;html=1;" edge="1" parent="1" source="zgpLaoxaqzMqhfPIAVHX-2">
          <mxGeometry relative="1" as="geometry">
            <mxPoint x="280" y="190" as="targetPoint" />
          </mxGeometry>
        </mxCell>
        <mxCell id="zgpLaoxaqzMqhfPIAVHX-2" value="setup a while function&lt;br&gt;to keep them battling till someone lose all the fighters" style="rounded=0;whiteSpace=wrap;html=1;" vertex="1" parent="1">
          <mxGeometry x="350" y="160" width="120" height="60" as="geometry" />
        </mxCell>
        <mxCell id="zgpLaoxaqzMqhfPIAVHX-6" style="edgeStyle=orthogonalEdgeStyle;rounded=0;orthogonalLoop=1;jettySize=auto;html=1;" edge="1" parent="1" source="zgpLaoxaqzMqhfPIAVHX-5">
          <mxGeometry relative="1" as="geometry">
            <mxPoint x="410" y="460" as="targetPoint" />
          </mxGeometry>
        </mxCell>
        <mxCell id="zgpLaoxaqzMqhfPIAVHX-10" style="edgeStyle=orthogonalEdgeStyle;rounded=0;orthogonalLoop=1;jettySize=auto;html=1;" edge="1" parent="1" source="zgpLaoxaqzMqhfPIAVHX-5">
          <mxGeometry relative="1" as="geometry">
            <mxPoint x="320" y="280" as="targetPoint" />
          </mxGeometry>
        </mxCell>
        <mxCell id="zgpLaoxaqzMqhfPIAVHX-5" value="set up a random number where depending on what it is who attacks" style="rounded=0;whiteSpace=wrap;html=1;" vertex="1" parent="1">
          <mxGeometry x="350" y="250" width="120" height="60" as="geometry" />
        </mxCell>
        <mxCell id="zgpLaoxaqzMqhfPIAVHX-15" style="edgeStyle=orthogonalEdgeStyle;rounded=0;orthogonalLoop=1;jettySize=auto;html=1;" edge="1" parent="1" source="zgpLaoxaqzMqhfPIAVHX-7">
          <mxGeometry relative="1" as="geometry">
            <mxPoint x="330" y="380" as="targetPoint" />
          </mxGeometry>
        </mxCell>
        <mxCell id="zgpLaoxaqzMqhfPIAVHX-17" style="edgeStyle=orthogonalEdgeStyle;rounded=0;orthogonalLoop=1;jettySize=auto;html=1;entryX=1;entryY=0.5;entryDx=0;entryDy=0;" edge="1" parent="1" source="zgpLaoxaqzMqhfPIAVHX-7" target="zgpLaoxaqzMqhfPIAVHX-16">
          <mxGeometry relative="1" as="geometry" />
        </mxCell>
        <mxCell id="zgpLaoxaqzMqhfPIAVHX-7" value="the attacks happens and damage is dealt" style="rounded=0;whiteSpace=wrap;html=1;" vertex="1" parent="1">
          <mxGeometry x="350" y="350" width="120" height="60" as="geometry" />
        </mxCell>
        <mxCell id="zgpLaoxaqzMqhfPIAVHX-14" value="like roll random 20&lt;br&gt;1-10 dino attack&lt;br&gt;11-20 robots attack" style="rounded=0;whiteSpace=wrap;html=1;" vertex="1" parent="1">
          <mxGeometry x="200" y="250" width="120" height="60" as="geometry" />
        </mxCell>
        <mxCell id="zgpLaoxaqzMqhfPIAVHX-16" value="if statments depending on who hits who" style="rounded=0;whiteSpace=wrap;html=1;" vertex="1" parent="1">
          <mxGeometry x="190" y="350" width="120" height="60" as="geometry" />
        </mxCell>
        <mxCell id="zgpLaoxaqzMqhfPIAVHX-22" style="edgeStyle=orthogonalEdgeStyle;rounded=0;orthogonalLoop=1;jettySize=auto;html=1;entryX=0;entryY=0.5;entryDx=0;entryDy=0;" edge="1" parent="1" source="zgpLaoxaqzMqhfPIAVHX-20" target="zgpLaoxaqzMqhfPIAVHX-21">
          <mxGeometry relative="1" as="geometry">
            <mxPoint x="140" y="210" as="targetPoint" />
          </mxGeometry>
        </mxCell>
        <mxCell id="zgpLaoxaqzMqhfPIAVHX-28" style="edgeStyle=orthogonalEdgeStyle;rounded=0;orthogonalLoop=1;jettySize=auto;html=1;exitX=0.5;exitY=1;exitDx=0;exitDy=0;" edge="1" parent="1" source="zgpLaoxaqzMqhfPIAVHX-20" target="zgpLaoxaqzMqhfPIAVHX-29">
          <mxGeometry relative="1" as="geometry">
            <mxPoint x="410" y="550" as="targetPoint" />
          </mxGeometry>
        </mxCell>
        <mxCell id="zgpLaoxaqzMqhfPIAVHX-20" value="a condition where it counts down from amount of fighters&amp;nbsp;" style="rounded=0;whiteSpace=wrap;html=1;" vertex="1" parent="1">
          <mxGeometry x="350" y="450" width="120" height="60" as="geometry" />
        </mxCell>
        <mxCell id="zgpLaoxaqzMqhfPIAVHX-27" style="edgeStyle=orthogonalEdgeStyle;rounded=0;orthogonalLoop=1;jettySize=auto;html=1;" edge="1" parent="1" source="zgpLaoxaqzMqhfPIAVHX-21">
          <mxGeometry relative="1" as="geometry">
            <mxPoint x="350" y="190" as="targetPoint" />
          </mxGeometry>
        </mxCell>
        <mxCell id="zgpLaoxaqzMqhfPIAVHX-21" value="where amount of fighters is stored" style="rounded=0;whiteSpace=wrap;html=1;" vertex="1" parent="1">
          <mxGeometry x="160" y="160" width="120" height="60" as="geometry" />
        </mxCell>
        <mxCell id="zgpLaoxaqzMqhfPIAVHX-29" value="one side wipes our the other declare the winner .end" style="rounded=0;whiteSpace=wrap;html=1;" vertex="1" parent="1">
          <mxGeometry x="350" y="540" width="120" height="60" as="geometry" />
        </mxCell>
      </root>
    </mxGraphModel>
  </diagram>
</mxfile>
